PathFileType        4      (X/Y/Z)      C:\Users\pc\Desktop\IMUTRC\Sujet_01\Sujet_01_velo_100.trc         
DataRate	CameraRate	NumFrames	NumMarkers	Units	OrigDataRate	OrigDataStartFrame	OrigNumFrames
60.0	60.0	4	64	mm	60.0	498	995
Frame#	Time	pHipOrigin			pRightASI			pLeftASI			pRightCSI			pLeftCSI			pRightIschialTub			pLeftIschialTub			pSacrum			pL5SpinalProcess			pL3SpinalProcess			pT12SpinalProcess			pIJ			pT4SpinalProcess			pT8SpinalProcess			pPX			pC7SpinalProcess			pTopOfHead			pRightAuricularis			pLeftAuricularis			pBackOfHead			pRightAcromion			pLeftAcromion			pRightArmLatEpicondyle			pRightArmMedEpicondyle			pLeftArmLatEpicondyle			pLeftArmMedEpicondyle			pRightUlnarStyloid			pRightRadialStyloid			pRightOlecranon			pLeftUlnarStyloid			pLeftRadialStyloid			pLeftOlecranon			pRightTopOfHand			pRightPinky			pRightBallHand			pLeftTopOfHand			pLeftPinky			pLeftBallHand			pRightGreaterTrochanter			pRightKneeLatEpicondyle			pRightKneeMedEpicondyle			pRightPatella			pLeftGreaterTrochanter			pLeftKneeLatEpicondyle			pLeftKneeMedEpicondyle			pLeftPatella			pRightTibialTub			pRightLatMalleolus			pRightMedMalleolus			pLeftTibialTub			pLeftLatMalleolus			pLeftMedMalleolus			pRightHeelFoot			pRightFirstMetatarsal			pRightFifthMetatarsal			pRightPivotFoot			pRightHeelCenter			pRightToe			pLeftHeelFoot			pLeftFirstMetatarsal			pLeftFifthMetatarsal			pLeftPivotFoot			pLeftHeelCenter			pLeftToe			
		X1	Y1	Z1	X2	Y2	Z2	X3	Y3	Z3	X4	Y4	Z4	X5	Y5	Z5	X6	Y6	Z6	X7	Y7	Z7	X8	Y8	Z8	X9	Y9	Z9	X10	Y10	Z10	X11	Y11	Z11	X12	Y12	Z12	X13	Y13	Z13	X14	Y14	Z14	X15	Y15	Z15	X16	Y16	Z16	X17	Y17	Z17	X18	Y18	Z18	X19	Y19	Z19	X20	Y20	Z20	X21	Y21	Z21	X22	Y22	Z22	X23	Y23	Z23	X24	Y24	Z24	X25	Y25	Z25	X26	Y26	Z26	X27	Y27	Z27	X28	Y28	Z28	X29	Y29	Z29	X30	Y30	Z30	X31	Y31	Z31	X32	Y32	Z32	X33	Y33	Z33	X34	Y34	Z34	X35	Y35	Z35	X36	Y36	Z36	X37	Y37	Z37	X38	Y38	Z38	X39	Y39	Z39	X40	Y40	Z40	X41	Y41	Z41	X42	Y42	Z42	X43	Y43	Z43	X44	Y44	Z44	X45	Y45	Z45	X46	Y46	Z46	X47	Y47	Z47	X48	Y48	Z48	X49	Y49	Z49	X50	Y50	Z50	X51	Y51	Z51	X52	Y52	Z52	X53	Y53	Z53	X54	Y54	Z54	X55	Y55	Z55	X56	Y56	Z56	X57	Y57	Z57	X58	Y58	Z58	X59	Y59	Z59	X60	Y60	Z60	X61	Y61	Z61	X62	Y62	Z62	X63	Y63	Z63	X64	Y64	Z64	
498	8.283	0.0	1250.01138	7.654112177073829E-14	47.56700999999999	1329.86236	137.9028800000001	88.44029000000002	1340.52495	-107.8698999999999	15.993889999999986	1395.73349	113.02349000000008	49.581060000000015	1404.50052	-89.03265999999992	-63.08701000000001	1200.43032	39.333120000000065	-46.323049999999995	1204.81383	-61.66532999999993	-58.88121	1274.95	-8.707779999999929	-15.52	1365.75976	2.4879400000000818	38.26686	1458.1689	17.17862000000009	91.81678	1539.97469	31.869310000000105	323.49124	1566.03881	77.00762000000014	221.24882	1660.63971	64.33098000000012	155.7331	1612.06567	48.51480000000012	236.76881	1495.96187	55.68243000000012	260.46347	1689.13253	73.98655000000012	486.51045	1792.14503	82.57586000000018	412.70161	1735.45557	150.46104000000017	412.22771	1731.66443	18.659540000000156	380.29917	1774.13709	83.52365000000016	223.08514999999997	1638.54444	243.34408000000013	299.20422	1632.62078	-100.82074999999986	296.36085999999995	1422.21227	319.64086000000015	280.48544999999996	1395.9112	275.3318600000002	406.83718	1414.21532	-101.53158999999985	368.15566	1389.03976	-73.63112999999987	401.62435999999997	1262.03642	398.72176000000013	434.2637399999999	1270.27031	370.4066500000001	270.77063999999996	1408.94326	311.82162000000017	549.83441	1269.32252	-118.35478999999985	560.31929	1275.36466	-76.05982999999986	381.12848	1402.42723	-109.58776999999988	562.03715	1201.73353	444.6893900000001	483.19319999999993	1218.67521	449.9614500000001	434.73762999999997	1240.41505	407.6072600000001	708.82552	1235.08375	-38.148389999999836	655.21637	1244.8578	-97.85890999999984	587.9828	1253.21016	-102.53860999999986	-14.927630000000018	1233.42513	148.8024200000001	267.80880999999994	1059.2102	245.2396500000001	294.99842	1059.03249	183.8112700000001	297.60483	1092.79736	219.11630000000008	18.126410000000018	1232.12192	-146.66989999999993	274.2656	1002.63921	-182.5672999999999	293.10285	1005.66028	-118.1178399999999	306.19414	1033.85692	-155.9700499999999	298.1972	1009.98456	221.90042000000008	36.43052999999998	747.98094	137.19204000000005	62.316939999999995	746.55926	82.93128000000006	331.01429	979.59616	-169.6537099999999	295.17613	601.37028	-166.57340999999994	322.01033	604.03592	-112.84577999999992	-44.012820000000005	663.80568	34.001830000000034	105.26348999999999	558.00906	70.01770000000005	55.445489999999985	547.99807	142.10868000000002	98.21432999999999	537.80937	114.85983000000004	-15.283050000000005	635.66829	49.93648000000004	150.63874999999996	495.51442	145.12975000000006	236.65034	482.48236	-98.51051999999994	415.84115	455.23351	-54.67540999999992	411.27993	428.87321	-138.7914299999999	437.99565	436.81092	-95.19326999999991	278.29369	470.81274	-97.14806999999995	510.44205	423.83809	-95.01555999999991	
499	8.3	0.0	1250.01138	7.654112177073829E-14	44.48670999999999	1330.5732	138.49524000000008	90.57281000000002	1340.16954	-106.38898999999991	13.328239999999985	1396.26662	112.60884000000009	51.23969000000002	1404.1451	-88.67723999999991	-63.85709000000001	1200.5488	38.207630000000066	-44.90136999999999	1204.45841	-62.43540999999993	-58.7035	1274.83153	-10.07022999999993	-15.75694	1365.75976	1.9548100000000816	37.79297	1458.22814	17.237860000000094	91.22441	1540.03393	32.52091000000011	322.89887	1565.8611	77.65922000000015	220.65645	1660.52123	65.93037000000012	155.0815	1612.12491	49.81801000000012	236.17645	1495.96187	55.86014000000012	259.93034	1689.07329	75.70441000000012	487.10282	1790.01251	83.81983000000017	412.93855	1734.09313	151.88272000000018	411.81306	1730.59817	20.081220000000155	380.71383	1773.30778	85.12304000000016	220.95262999999997	1639.07757	244.64729000000014	298.49338	1632.85773	-99.45829999999985	295.5315499999999	1422.38998	319.64086000000015	280.1300299999999	1396.3851	274.9764400000002	406.48176	1414.3338	-101.94623999999986	367.80024	1388.86205	-74.28273999999988	401.86129999999997	1262.74726	398.2478700000001	434.38220999999993	1271.09962	369.81429000000014	270.23750999999993	1409.18021	311.70315000000016	550.01212	1269.97413	-119.06562999999986	560.43776	1275.95703	-76.82990999999986	380.77306	1402.42723	-110.12089999999988	562.45181	1202.85902	443.9785500000001	483.54861999999997	1219.62299	449.3098400000001	434.97457999999995	1241.24436	407.07413000000014	709.12171	1236.56467	-38.74075999999984	655.51256	1245.98329	-98.45127999999984	588.21974	1254.03947	-103.19020999999985	-17.830230000000018	1234.78757	148.62471000000008	273.43628999999993	1082.37172	255.84301000000008	302.403	1083.14179	195.2439400000001	301.63292	1117.55828	230.01584000000008	17.356330000000018	1230.40406	-146.0775299999999	254.59904000000003	981.31403	-181.6195099999999	274.50255	983.92044	-117.52547999999992	289.19323	1010.39921	-156.02928999999992	305.06864999999993	1033.67921	233.09614000000008	45.84914999999999	770.43162	144.41891000000007	72.68334999999999	769.00994	90.63205000000006	312.65094	956.90853	-169.94988999999993	275.33186	578.80112	-165.92179999999993	302.93613	581.46677	-112.49035999999991	-30.032970000000002	681.04354	43.47969000000003	123.38989999999998	582.53303	82.69434000000005	73.69036999999999	572.22585	154.78532000000004	116.99234999999999	563.22189	128.01036000000005	-0.23695000000000738	654.50553	60.243650000000045	170.83843999999996	524.12571	159.46501000000006	212.06714	463.28969	-98.45127999999994	389.83627	428.34008	-54.26074999999992	384.32726	402.39443	-138.3767699999999	411.27993	409.08817	-94.71936999999991	253.11812	449.84297	-96.97035999999994	483.07472	393.03505	-94.42318999999992	
500	8.317	0.0	1250.01138	7.654112177073829E-14	42.176479999999984	1330.75091	139.0876100000001	92.29067000000002	1340.05106	-104.9673099999999	11.432669999999986	1396.44433	112.60884000000009	52.661360000000016	1404.02662	-88.02562999999992	-64.44945	1200.5488	37.25984000000006	-43.83510999999999	1204.39918	-63.087009999999935	-58.52579	1274.77229	-11.077249999999928	-15.87542	1365.75976	1.8363400000000818	37.61526	1458.28738	17.593280000000092	90.92823	1540.03393	33.231750000000105	322.89887	1565.8611	76.88915000000014	220.4195	1660.462	66.70045000000013	154.78532	1612.06567	50.706560000000124	236.11721	1496.02111	55.20854000000012	259.8711	1689.07329	76.35602000000013	488.40602	1787.64304	83.46441000000017	413.76787	1732.67145	151.76425000000017	412.05	1729.41344	19.962740000000156	381.83932	1772.47847	85.24151000000016	220.00484999999998	1639.66994	245.12118000000015	297.96025	1633.27238	-99.04364999999986	295.47230999999994	1421.97532	318.45613000000014	280.78162999999995	1396.44433	273.3178100000002	406.12634	1414.3338	-102.00547999999988	367.38558	1388.80281	-74.46043999999988	402.21671999999995	1262.68802	396.8261900000001	434.73762999999997	1271.09962	368.4518400000001	270.47445999999997	1409.0025	310.2814700000002	549.83441	1270.27031	-119.59875999999986	560.31929	1276.19397	-77.30379999999985	380.41764	1402.368	-110.18012999999988	562.74799	1202.68132	442.6161100000001	483.84479999999996	1219.56375	448.0066400000001	435.3299999999999	1241.18513	405.6524500000001	709.12171	1237.45322	-39.214649999999835	655.51256	1246.69413	-98.92516999999984	588.16051	1254.39489	-103.66409999999986	-20.021980000000017	1235.91306	148.50623000000007	277.8790399999999	1104.23003	264.6692700000001	308.08972	1105.88866	204.6625600000001	304.2985699999999	1140.77904	238.84210000000007	16.823200000000018	1229.9894	-145.7221099999999	237.53889000000004	966.32716	-182.2711099999999	258.21247	967.86731	-118.35478999999991	274.14713	993.27983	-157.09553999999991	311.05154999999996	1056.60378	243.22561000000007	60.36212999999998	785.06307	155.08150000000006	88.02562999999999	783.46368	101.70930000000006	295.94621	940.32228	-171.6677599999999	252.58499000000003	562.86647	-169.41675999999995	280.72239	564.76204	-116.28150999999994	-9.359390000000007	688.44812	56.867170000000044	149.51326	600.42249	99.10288000000006	100.22837999999999	589.10829	171.37157000000002	144.12271999999996	581.94066	144.95204000000007	21.917549999999988	664.22034	74.40121000000005	199.80515999999997	547.40571	177.53218000000007	183.92974	450.55381	-102.24241999999994	359.74406	407.13336	-57.69647999999993	353.22803	381.60238	-141.87172999999993	380.35841	386.99291	-98.15509999999993	224.32912	435.21153	-100.70226999999994	451.20542	367.56329	-97.68119999999992	
501	8.333	0.0	1250.01138	7.654112177073829E-14	40.39937999999999	1330.63244	139.67998000000009	93.77159000000002	1340.05106	-103.6640999999999	10.070229999999986	1396.32586	112.90502000000008	53.90533000000001	1404.08586	-87.25555999999992	-64.98258	1200.60803	36.371290000000066	-43.06502999999999	1204.45841	-63.67937999999994	-58.34808	1274.83153	-11.847329999999928	-15.87542	1365.75976	2.014050000000082	37.61526	1458.22814	18.067170000000093	90.98746	1539.97469	33.94259000000011	323.31353	1565.80186	75.28976000000014	220.59721	1660.28429	66.99663000000012	154.90379	1611.9472	51.35816000000012	236.41339	1495.96187	54.08304000000012	260.28576	1688.95482	76.35602000000013	490.30159	1784.9774	82.33892000000017	415.07107	1731.01283	150.75723000000016	412.82008	1728.05099	18.955720000000156	383.49795	1771.41221	84.47144000000016	220.06407999999996	1639.96612	245.18041000000014	297.84178	1633.56857	-99.10287999999986	296.06467999999995	1421.14601	316.7975000000002	281.96635999999995	1396.20739	271.0668200000002	405.94863	1414.09685	-101.82776999999987	367.14864	1388.6251	-74.34196999999988	402.7498499999999	1261.97718	395.10833000000014	435.3299999999999	1270.38878	366.79322000000013	271.30376999999993	1408.41013	308.3266600000002	549.6567	1270.21107	-119.89493999999986	560.20082	1276.0755	-77.59998999999986	380.1807	1402.24952	-110.06165999999988	563.04418	1201.55582	441.13519000000014	484.20021999999994	1218.67521	446.4072500000001	435.80388999999997	1240.47429	403.99382000000014	709.12171	1237.80864	-39.510829999999835	655.39408	1246.87184	-99.22135999999985	588.04203	1254.39489	-103.96028999999986	-21.858320000000017	1236.86085	148.32852000000008	280.78162999999995	1124.5482	272.2515600000001	311.99933	1126.85843	212.7779800000001	305.5425399999999	1162.10422	246.18744000000012	16.645490000000017	1230.34482	-145.5443999999999	223.20362000000003	955.78304	-184.22591999999992	244.11416000000003	955.96075	-120.36882999999992	261.23354	980.66242	-158.9911199999999	316.08665999999994	1078.52134	252.7034700000001	79.14013999999999	793.65238	168.70592000000005	107.63295999999998	791.87528	115.74838000000005	280.66316	928.17877	-174.0372199999999	226.63935000000004	552.0854	-175.22194999999994	255.07293000000004	552.61853	-122.26440999999994	17.23785999999999	688.68507	73.27571000000005	181.97492999999997	613.80997	118.47326000000007	133.28241999999997	601.01486	190.91966000000005	177.70988999999997	596.33516	164.79631000000006	50.11418999999999	667.35988	91.57983000000004	235.70254999999997	566.89456	198.56119000000007	152.41585	443.09	-108.52150999999996	325.683	390.66558	-63.73860999999994	318.04147	365.66772	-148.03233999999995	345.34956	369.5181	-104.25646999999992	191.98592	425.67443	-106.92211999999995	415.13031	346.59353	-103.66409999999993	
